<mxfile host="app.diagrams.net" modified="2022-05-06T07:02:27.828Z" agent="5.0 (Windows NT 10.0; Win64; x64) AppleWebKit/537.36 (KHTML, like Gecko) Chrome/101.0.4951.54 Safari/537.36" etag="5anJayN72dyoarWhZSYn" version="18.0.1" type="github">
  <diagram id="R2lEEEUBdFMjLlhIrx00" name="Page-1">
    <mxGraphModel dx="770" dy="781" grid="1" gridSize="10" guides="1" tooltips="1" connect="1" arrows="1" fold="1" page="1" pageScale="1" pageWidth="2000" pageHeight="2336" math="0" shadow="0" extFonts="Permanent Marker^https://fonts.googleapis.com/css?family=Permanent+Marker">
      <root>
        <mxCell id="0" />
        <mxCell id="1" parent="0" />
        <mxCell id="qXGRHOwea9Z-HIbD4cqm-10" style="endArrow=none;html=1;rounded=0;sourcePerimeterSpacing=8;targetPerimeterSpacing=8;" edge="1" parent="1" source="qXGRHOwea9Z-HIbD4cqm-1" target="qXGRHOwea9Z-HIbD4cqm-8">
          <mxGeometry relative="1" as="geometry" />
        </mxCell>
        <mxCell id="qXGRHOwea9Z-HIbD4cqm-12" style="endArrow=none;html=1;rounded=0;sourcePerimeterSpacing=8;targetPerimeterSpacing=8;" edge="1" parent="1" source="qXGRHOwea9Z-HIbD4cqm-1" target="qXGRHOwea9Z-HIbD4cqm-3">
          <mxGeometry relative="1" as="geometry" />
        </mxCell>
        <mxCell id="qXGRHOwea9Z-HIbD4cqm-13" style="endArrow=none;html=1;rounded=0;sourcePerimeterSpacing=8;targetPerimeterSpacing=8;" edge="1" parent="1" source="qXGRHOwea9Z-HIbD4cqm-1" target="qXGRHOwea9Z-HIbD4cqm-9">
          <mxGeometry relative="1" as="geometry" />
        </mxCell>
        <mxCell id="qXGRHOwea9Z-HIbD4cqm-14" style="endArrow=none;html=1;rounded=0;sourcePerimeterSpacing=8;targetPerimeterSpacing=8;" edge="1" parent="1" source="qXGRHOwea9Z-HIbD4cqm-1" target="qXGRHOwea9Z-HIbD4cqm-7">
          <mxGeometry relative="1" as="geometry" />
        </mxCell>
        <mxCell id="qXGRHOwea9Z-HIbD4cqm-15" style="endArrow=none;html=1;rounded=0;sourcePerimeterSpacing=8;targetPerimeterSpacing=8;" edge="1" parent="1" source="qXGRHOwea9Z-HIbD4cqm-1" target="qXGRHOwea9Z-HIbD4cqm-2">
          <mxGeometry relative="1" as="geometry" />
        </mxCell>
        <mxCell id="qXGRHOwea9Z-HIbD4cqm-16" style="endArrow=none;html=1;rounded=0;sourcePerimeterSpacing=8;targetPerimeterSpacing=8;" edge="1" parent="1" source="qXGRHOwea9Z-HIbD4cqm-1" target="qXGRHOwea9Z-HIbD4cqm-5">
          <mxGeometry relative="1" as="geometry" />
        </mxCell>
        <mxCell id="qXGRHOwea9Z-HIbD4cqm-17" style="endArrow=none;html=1;rounded=0;sourcePerimeterSpacing=8;targetPerimeterSpacing=8;" edge="1" parent="1" source="qXGRHOwea9Z-HIbD4cqm-1" target="qXGRHOwea9Z-HIbD4cqm-6">
          <mxGeometry relative="1" as="geometry" />
        </mxCell>
        <mxCell id="qXGRHOwea9Z-HIbD4cqm-23" style="endArrow=none;html=1;rounded=0;sourcePerimeterSpacing=8;targetPerimeterSpacing=8;" edge="1" parent="1" source="qXGRHOwea9Z-HIbD4cqm-1" target="qXGRHOwea9Z-HIbD4cqm-4">
          <mxGeometry relative="1" as="geometry" />
        </mxCell>
        <mxCell id="qXGRHOwea9Z-HIbD4cqm-30" style="endArrow=none;html=1;rounded=0;sourcePerimeterSpacing=8;targetPerimeterSpacing=8;" edge="1" parent="1" source="qXGRHOwea9Z-HIbD4cqm-1" target="qXGRHOwea9Z-HIbD4cqm-29">
          <mxGeometry relative="1" as="geometry" />
        </mxCell>
        <UserObject label="Train" tooltip="endArrow=none;html=1;rounded=0;sourcePerimeterSpacing=8;targetPerimeterSpacing=8;" id="qXGRHOwea9Z-HIbD4cqm-1">
          <mxCell style="rounded=0;whiteSpace=wrap;html=1;hachureGap=4;" vertex="1" parent="1">
            <mxGeometry x="1030" y="810" width="120" height="60" as="geometry" />
          </mxCell>
        </UserObject>
        <mxCell id="qXGRHOwea9Z-HIbD4cqm-2" value="Arrival_time" style="ellipse;whiteSpace=wrap;html=1;hachureGap=4;" vertex="1" parent="1">
          <mxGeometry x="1210" y="1100" width="120" height="80" as="geometry" />
        </mxCell>
        <mxCell id="qXGRHOwea9Z-HIbD4cqm-3" value="Source" style="ellipse;whiteSpace=wrap;html=1;hachureGap=4;" vertex="1" parent="1">
          <mxGeometry x="960" y="1160" width="120" height="80" as="geometry" />
        </mxCell>
        <mxCell id="qXGRHOwea9Z-HIbD4cqm-4" value="Destination" style="ellipse;whiteSpace=wrap;html=1;hachureGap=4;" vertex="1" parent="1">
          <mxGeometry x="870" y="1070" width="120" height="80" as="geometry" />
        </mxCell>
        <mxCell id="qXGRHOwea9Z-HIbD4cqm-5" value="Available_Seats" style="ellipse;whiteSpace=wrap;html=1;hachureGap=4;" vertex="1" parent="1">
          <mxGeometry x="1240" y="1010" width="120" height="80" as="geometry" />
        </mxCell>
        <mxCell id="qXGRHOwea9Z-HIbD4cqm-6" value="Departure_Time" style="ellipse;whiteSpace=wrap;html=1;hachureGap=4;" vertex="1" parent="1">
          <mxGeometry x="1260" y="910" width="120" height="80" as="geometry" />
        </mxCell>
        <mxCell id="qXGRHOwea9Z-HIbD4cqm-7" value="Distance" style="ellipse;whiteSpace=wrap;html=1;hachureGap=4;" vertex="1" parent="1">
          <mxGeometry x="1110" y="1180" width="120" height="80" as="geometry" />
        </mxCell>
        <mxCell id="qXGRHOwea9Z-HIbD4cqm-8" value="Train_Name" style="ellipse;whiteSpace=wrap;html=1;hachureGap=4;" vertex="1" parent="1">
          <mxGeometry x="840" y="970" width="120" height="80" as="geometry" />
        </mxCell>
        <object label="&lt;u&gt;Train_No&lt;/u&gt;" id="qXGRHOwea9Z-HIbD4cqm-9">
          <mxCell style="ellipse;whiteSpace=wrap;html=1;hachureGap=4;" vertex="1" parent="1">
            <mxGeometry x="820" y="880" width="120" height="80" as="geometry" />
          </mxCell>
        </object>
        <mxCell id="qXGRHOwea9Z-HIbD4cqm-27" style="endArrow=none;html=1;rounded=0;sourcePerimeterSpacing=8;targetPerimeterSpacing=8;" edge="1" parent="1" source="qXGRHOwea9Z-HIbD4cqm-21" target="qXGRHOwea9Z-HIbD4cqm-26">
          <mxGeometry relative="1" as="geometry" />
        </mxCell>
        <mxCell id="qXGRHOwea9Z-HIbD4cqm-28" style="endArrow=none;html=1;rounded=0;sourcePerimeterSpacing=8;targetPerimeterSpacing=8;" edge="1" parent="1" source="qXGRHOwea9Z-HIbD4cqm-21" target="qXGRHOwea9Z-HIbD4cqm-25">
          <mxGeometry relative="1" as="geometry" />
        </mxCell>
        <mxCell id="qXGRHOwea9Z-HIbD4cqm-21" value="Station" style="rounded=0;whiteSpace=wrap;html=1;hachureGap=4;" vertex="1" parent="1">
          <mxGeometry x="1140" y="560" width="120" height="60" as="geometry" />
        </mxCell>
        <mxCell id="qXGRHOwea9Z-HIbD4cqm-25" value="&lt;u&gt;Station_No&lt;/u&gt;" style="ellipse;whiteSpace=wrap;html=1;hachureGap=4;" vertex="1" parent="1">
          <mxGeometry x="1330" y="530" width="120" height="80" as="geometry" />
        </mxCell>
        <mxCell id="qXGRHOwea9Z-HIbD4cqm-26" value="Station_Name" style="ellipse;whiteSpace=wrap;html=1;hachureGap=4;" vertex="1" parent="1">
          <mxGeometry x="1200" y="430" width="120" height="80" as="geometry" />
        </mxCell>
        <mxCell id="qXGRHOwea9Z-HIbD4cqm-31" style="endArrow=none;html=1;rounded=0;sourcePerimeterSpacing=8;targetPerimeterSpacing=8;" edge="1" parent="1" source="qXGRHOwea9Z-HIbD4cqm-29" target="qXGRHOwea9Z-HIbD4cqm-21">
          <mxGeometry relative="1" as="geometry" />
        </mxCell>
        <mxCell id="qXGRHOwea9Z-HIbD4cqm-29" value="Has" style="rhombus;whiteSpace=wrap;html=1;hachureGap=4;" vertex="1" parent="1">
          <mxGeometry x="1120" y="680" width="80" height="80" as="geometry" />
        </mxCell>
        <mxCell id="qXGRHOwea9Z-HIbD4cqm-32" value="1" style="text;strokeColor=none;fillColor=none;html=1;align=center;verticalAlign=middle;whiteSpace=wrap;rounded=0;hachureGap=4;" vertex="1" parent="1">
          <mxGeometry x="1150" y="620" width="60" height="30" as="geometry" />
        </mxCell>
        <mxCell id="qXGRHOwea9Z-HIbD4cqm-44" value="M" style="text;html=1;align=center;verticalAlign=middle;resizable=0;points=[];autosize=1;strokeColor=none;fillColor=none;hachureGap=4;" vertex="1" parent="1">
          <mxGeometry x="1090" y="780" width="30" height="20" as="geometry" />
        </mxCell>
      </root>
    </mxGraphModel>
  </diagram>
</mxfile>
